<svg xmlns="http://www.w3.org/2000/svg" xml:space="preserve" style="fill-rule:evenodd;clip-rule:evenodd;stroke-linejoin:round;stroke-miterlimit:2" viewBox="0 0 2481 2481"><path d="M0 0h2480.32v2480.32H0z" style="fill:none"/><clipPath id="a"><path d="M0 0h2480.32v2480.32H0z"/></clipPath><g clip-path="url(#a)"><circle cx="1240.16" cy="1240.16" r="1240.16" style="fill:#d62c31"/><path d="M888.215 764.586c11.334-4.155 51.909-6.443 66.258-6.284 51.492.57 33.493 60.173 12.558 194.997s-23.39 155.264-15.976 152.688c7.414-2.575 32.098-35.202 43.771-50.658 11.672-15.457 18.241-24.517 53.211-65.209 34.971-40.691 73.523-40.577 98.931-39.947 41.175 1.021 53.335 41.292 55.717 76.768 2.383 35.476-34.267 94.097-58.913 117.827-24.647 23.731-95.735 73.642-95.735 73.642s25.067 33.558 51.549 66.278c26.483 32.721 44.41 37.154 58.914 36.821 14.504-.332 21.112-7.808 29.457-14.728 8.345-6.921 17.208-17.671 30.49-19.887s20.272 11.348 21.139 34.615c1.13 30.331-25.01 49.964-41.426 63.673s-39.768 31.608-91.209 32.062c-41.469.366-69.462-39.095-88.371-58.914-18.908-19.818-34.684-48.021-58.913-81.006s-30.314-57.177-36.821 44.185c-5.756 89.645-26.827 79.453-78.208 78.755-50.942-.691-55.801-21.901-54.348-41.934 6.794-93.683 59.189-465.904 63.626-525.348s23.992-64.617 34.299-68.396m60.248 416.542c3.56 6.252 64.257-7.641 82.145-25.182s57.358-43.344 51.753-92.565c-3.994-35.081-70.683 29.524-88.397 47.585-17.714 18.062-50.33 61.682-45.501 70.162m434.468 224.591c-43.133-1.456-50.202-62.026-53.458-77.222s-23.608-123.738-26.593-149.789-30.663-158.472-30.935-188.05 33.106-34.462 68.925-36.09 54.814 10.04 62.141 26.864 9.769 134.05 15.467 178.01 18.528 117.335 26.17 117.335c7.641 0 57.137-123.826 64.604-141.54 7.468-17.714 44.02-98.549 44.482-116.896.283-11.251-9.104-17.849 2.17-48.625 13.102-35.765 47.7-24.379 93.809-9.01 46.11 15.37 33.92 48.145 29.68 61.394-4.24 13.25-7.022 6.572-22.156 28.715-5.923 8.666-9.118 33.868-36.673 100.159-17.264 41.533-64.13 135.149-95.399 183.908-20.946 32.661-42.832 71.205-77.663 71.531-18.131.169-48.006-.135-64.571-.694m-749.557 99.099c1.436-13.194 46.022-10.42 69.814-10.246 23.793.173 107.843-5.031 108.89 66.167 1.042 70.857-35.192 72.416-35.223 77.456-.031 5.037 49.638 11.687 50.332 73.983s-44.98 86.609-121.394 85.567c-32.477-.442-59.568 1.39-66.167-1.736s-10.768-12.157-10.594-29.177c.173-17.019 3.126-250.848 4.342-262.014m56.841 39.153c-.83 5.262-.891 62.588.681 67.525.979 3.072 6.407 1.93 24.756 2.064 17.864.13 40.254-10.991 40.14-35.655-.117-25.592-26.168-35.665-34.589-36.287-6.368-.471-30.281-2.128-30.988 2.353m-2.369 127.854c-1.742 3.011-1.494 58.457 1.111 65.404 1.124 2.998 13.693 3.959 21.855 4.133s24.487-.104 33.171-3.925c8.683-3.821 28.763-13.235 27.891-34.733-.818-20.173-20.609-33.049-42.303-33.009-12.011.023-39.771-1.248-41.725 2.13m188.822-16.07c-1.881-49.206-2.651-110.655 3.709-117.863s42.298-8.036 49.929.02 8.904 39.432 9.328 93.703-3.816 103.455 36.04 104.727c39.855 1.272 45.704-55.937 45.11-102.153-.593-46.215-.167-83.133 5.769-89.493s46.216-11.024 50.88-2.968 2.968 84.411 2.968 104.321 4.653 85.598-24.945 115.443c-30.895 31.152-44.999 36.03-66.198 36.392-21.2.361-25.031.012-35.307 0-7.815-.01-34.879-7.536-52.824-30.981-23.72-30.989-22.577-61.942-24.459-111.148m38.711-213.792c19.869 0 36 14.674 36 32.747 0 18.074-16.131 32.747-36 32.747s-36-14.673-36-32.747 16.131-32.747 36-32.747m112.704 1.454c18.67 0 33.829 15.158 33.829 33.829s-15.159 33.829-33.829 33.829-33.83-15.158-33.83-33.829 15.159-33.829 33.83-33.829m119.311 339.902c-5.498-6.957-4.223-69.077-4.223-90.277 0-21.199.471-159.704 5.418-168.655 4.946-8.951 13.167-11.841 24.155-13.312 11.149-1.492 30.392.324 36.281 6.213s36.376 60.569 46.034 80.356c9.657 19.786 48.523 85.741 52.999 86.212s2.12-41.693 1.884-50.88c-.235-9.186-1.649-106.94 1.178-114.243s13.037-11.364 24.733-11.276c13.121.099 17.147 4.299 20.916 8.303s4.288 17.107 4.288 26.058 1.337 202.273 1.178 211.434c-.202 11.649.204 19.667-3.33 23.907-3.533 4.24-13.482 13.451-24.123 13.447-8.277-.002-26.031 2.376-37.474-5.559-7.436-5.157-31.179-51.254-41.307-70.334s-43.907-89.343-50.267-89.343-4.853 20.326-4.853 29.748-1.324 124.495-5.328 128.499-14.297 4.01-24.507 4.016c-9.276.006-18.925 1.668-23.652-4.314m291.635-1.005c-5.628-6.304-6.41-28.849-6.41-39.842s.631-112.24.631-120.72c0-8.479 0-97.989 2.199-105.527s36.432-12.563 56.532-13.505c20.101-.942 78.832 6.91 103.643 24.183 24.812 17.274 57.475 52.181 55.591 123.138s-17.24 85.498-30.587 102.894c-11.575 15.087-22.797 23.28-44.412 31.003-17.74 6.338-44.348 6.903-58.795 7s-36.262.103-46.796 0c-11.314-.11-25.3-1.571-31.596-8.624m60.006-214.887c-3.522 2.551-5.481 8.941-5.213 13.497s-1.072 138.157-1.072 142.311-.616 9.113 1.662 11.257 10.452 1.902 27.605.562 40.254-15.732 49.232-28.194 16.51-24.272 18.252-57.663-9.311-51.476-27.267-66.619c-17.957-15.142-54.925-21.146-63.199-15.151m202.933-59.971c4.965-6.782 18.243-6.5 25.425-6.5s120.603-2.787 126.499-.75 13.829 6.754 13.615 19.082-7.076 24.978-11.149 28.409c-4.074 3.43-16.509 7.611-20.154 8.683s-11.578.643-14.687.643-40.308.215-43.203.215c-2.894 0-15.115-1.18-17.045 1.072s-2.466 10.398-2.358 12.221c.107 1.822.107 24.013-.108 25.943-.214 1.929-.107 7.075 1.93 8.04s6.754 3.109 12.436 3.109c5.681 0 38.691-.536 42.443-.429s26-2.188 29.492 6.31c4.02 9.78-1.253 30.274-8.007 39.634s-10.291 9.963-18.332 11.972c-8.04 2.01-19.141 2.082-23.644 2.082-4.502 0-23.239-.501-25.276-.608s-7.182-.107-8.79 2.144-1.93 5.467-1.93 9.22c0 3.752-.429 32.267-.429 34.519s-.965 10.398 1.287 11.899 12.971 2.68 16.938 2.787c3.966.108 56.71-.214 62.392-.428 5.681-.215 20.725.286 24.049 8.647s3.42 12.295 3.621 22.834c.21 11.048.412 17.54-4.539 24.3-4.148 5.664-14.817 3.919-19.665 4.252-4.604.317-50.564.631-53.78.631s-48.822-.633-57.318-.631c-9.326.003-21.202.846-24.513-3.121-8.7-10.42-7.395-10.113-7.741-34.185-.045-3.117-.117-221.786-.121-225.018-.004-3.455-1.06-11.894 2.662-16.978M1089.74 597.069c2.602-4.452 7.75-3.617 12.62-3.756s72.903.139 77.494.278c4.592.139 14.024-.306 16.251 1.224 2.226 1.531 26.87 46.052 30.58 51.867 3.923 6.15 18.126 29.866 25.961 30.108 8.483.262 24.062-28.214 27.548-33.669 4.285-6.706 28.02-46.414 31.638-50.17 3.617-3.756 11.464-4.035 18.003-4.035s67.422-.25 71.595-.25 8.621 1.139 10.908 5.76c1.448 2.924-4.73 16.083-9.321 23.234-2.433 3.79-34.992 54.011-64.164 101.762-26.169 42.834-52.347 92.517-57.296 98.973-3.096 4.04-10.594 17.008-14.778 19.378-3.78 2.141-13.277 2.906-17.361 1.074-8.684-3.896-22.485-27.496-38.594-50.504-24.58-35.107-54.926-93.786-76.743-122.27-14.169-18.5-46.944-64.552-44.341-69.004M827.195 367.207c4.697-5.916 47.814-3.034 58.664-3.269 10.849-.235 202.617 1.268 211.538 1.033s427.581 3.662 439.789 3.428c12.209-.235 107.764 0 111.051.234s7.983-.469 8.922 5.635-6.809 44.139-9.391 60.573c-2.583 16.435-22.07 102.834-24.417 109.407-2.348 6.574-2.928 11.561-8.459 18.138-4.008 4.764-15.019 3.462-21.828 4.401s-180.311 4.696-193.693 4.931c-13.383.234-294.563.469-309.631.469-15.069 0-157.497 1.878-161.412 1.644-3.916-.235-18.473.704-30.681-9.391s-21.835-49.069-27.469-61.748-28.643-84.52-33.339-96.494-15.117-32.097-9.644-38.991m238.371 42.031c.331 6.294 11.594 35.942 15.135 42.401s19.813 42.733 23.125 48.033 16.397 28.157 19.876 30.641c3.478 2.485 9.441 2.319 13.084 1.822 3.644-.497 5.135-.662 9.607-3.644 4.472-2.981 22.029-37.101 25.341-43.726s14.576-35.776 18.054-42.732c3.478-6.957 12.422-27.495 12.919-35.611s-12.919-8.281-19.213-5.465c-6.294 2.815-10.435 10.434-14.41 18.053s-17.722 46.708-21.863 54.824-10.103 11.759-13.25 11.759-7.122-5.797-10.932-14.007c-3.809-8.209-13.25-30.547-17.391-38.663s-11.925-33.821-26.934-35.477c-5.693-.628-13.479 5.498-13.148 11.792m-84.372-11.777c-17.679-.301-35.202 4.08-47.886 15.077-8.277 7.176-15.845 19.536-19.264 31.554-2.993 10.517-4.578 18.206-4.578 28.26s0 24.131 9.564 37.311c15.2 20.946 32.409 27.809 48.93 30.234 4.623.679 19.899 2.51 28.992-.412 16.191-5.204 36.007-17.286 42.948-32.421 2.288-4.99 2.243-9.084-1.87-13.16s-11.11-4.396-16.915-1.27c-5.523 2.974-19.499 15.147-44.97 13.516-25.471-1.63-32.907-28.889-33.373-41.678-.698-19.183 7.928-30.912 31.949-37.475 9.182-2.509 26.969-.273 33.986 3.803s15.431 3.781 19.376-1.926c3.944-5.706 3.664-7.336 0-10.869s-16.315-20.024-46.889-20.544m419.933 138.408c5.049 6.958 15.695 8.308 19.994 5.22 6.664-4.786 9.085-17.517 11.498-23.326 3.271-7.876 4.361-21.873 5.584-29.387 2.414-14.823-.638-19.042 6.834-19.108 7.473-.067 12.404 6.264 20.278 13.109 3.774 3.281 14.615 15.393 22.492 14.585 7.876-.808 21.569-13.087 26.819-19.146 5.251-6.058 13.842-16.925 21.92-21.166s8.409-.22 11.035 11.371c1.262 5.574.907 34.522 3.397 43.32 2.215 7.824 5.204 17.649 11.468 21.095 2.305 1.268 13.219.981 16.281 0 5.829-1.868 8.573-11.574 8.534-20.376-.034-7.69-7.807-28.589-10.432-38.588-2.626-9.998-10.906-46.75-13.531-58.464s-14.755-11.895-21.342-9.153c-12.456 5.185-47.067 50.531-58.835 49.342-9.389-.948-25.573-39.735-39.948-46.474-4.662-2.185-18.643-1.817-21.471 4.645-2.827 6.463-10.496 35.343-12.699 45.896-2.04 9.779-7.472 48.038-7.674 52.683s-2.452 20.822-.202 23.922m-143.396-121.918c-1.492 2.519-3.035 9.661 3.177 12.077 6.211 2.415 20.214 2.452 24.729 2.523 4.78.076 22.629-.789 27.115-.616 4.486.172 7.497 1.99 8.187 4.923s2.29 39.659 2.117 45.525-1.319 10.337-3.389 16.721c-2.071 6.383-12.415 23.024-32.119 22.897-16.276-.106-28.455-22.222-30.698-25.327s1.119-12.501-1.723-14.399-11.371.202-15.506 3.825-7.942 9.835-9.323 12.94c-1.38 3.106-1.38 7.246.863 10.007s15.092 17.048 21.485 22.648c12.135 10.631 29.577 13.452 38.383 13.394 21.24-.141 32.499-10.549 43.793-22.881 14.12-15.416 13.763-31.595 13.975-34.353.343-4.453 1.081-37.71 1.254-42.196.172-4.486 1.352-30.25.733-31.407-.7-1.309-4.173-5.477-10.427-4.134-7.351 1.578-64.853 2.229-69.362 2.744-4.114.47-11.341 1.841-13.264 5.089M986.874 230.412c42.595-1.585 539.368-2.258 572.613-2.604 27.654-.287 59.202-.102 64.461 3.264s4.57 13.344-.73 22.011c-3.227 5.279-20.623 32.838-24.199 36.624s-37.865 51.75-41.862 54.064-10.518 9.045-47.121 8.624-40.09-.227-43.756-3.576c-7.497-6.849 2.104-13.253 8.204-19.353s14.271-11.721 12.858-16.324c-1.74-5.663-11.385-4.081-25.269-4.292s-200.709-1.262-209.427-.631c-8.719.631-199.308-.42-207.932-.21-8.625.21-34.71-.842-37.445 1.472s21.012 26.085 20.814 33.238-3.564 9.256-8.613 9.887-17.196.631-25.217.421-31.791 2.524-36.419-.842-63.95-92.98-68.578-100.553-3.997-14.726-1.262-17.881 58.692-1.844 98.88-3.339m744.334 219.675-27.012-14.258 14.493-58.232c15.393.73 30.786 5.425 46.179 14.259 303.378 175.363 480.426 497.724 480.426 871.759 0 558.893-442.335 988.986-1003.85 988.986-561.467 0-1006.42-432.711-1006.42-991.554 0-390.965 197.561-698.933 500.663-879.38 16.03-8.11 27.534-11.838 41.171-15.759l22.132 56.35-28.897 17.203c-283.189 168.592-467.81 456.306-467.81 821.586 0 521.22 415.494 924.294 939.161 924.294 523.617 0 936.594-400.557 936.594-921.726 0-348.777-163.936-650.007-446.827-813.528Z" style="fill:#fff"/></g></svg>