<?xml version="1.0" encoding="UTF-8" standalone="no"?><!DOCTYPE svg PUBLIC "-//W3C//DTD SVG 1.1//EN" "http://www.w3.org/Graphics/SVG/1.1/DTD/svg11.dtd"><svg width="100%" height="100%" viewBox="0 0 183 73" version="1.1" xmlns="http://www.w3.org/2000/svg" xmlns:xlink="http://www.w3.org/1999/xlink" xml:space="preserve" xmlns:serif="http://www.serif.com/" style="fill-rule:evenodd;clip-rule:evenodd;stroke-linejoin:round;stroke-miterlimit:2;"><g id="logo"><g><path d="M82.833,0.482l-41.417,71.735l-41.416,-71.735l82.833,-0Zm-62.121,11.958l20.704,35.861l20.705,-35.861l-41.409,-0Z" style="fill:#E40038;"/><rect x="0" y="18.392" width="82.833" height="17.937" style="fill:#231f20;"/><path d="M30.921,30.136l4.242,-9.017l3.156,-0l-5.811,12.484l-3.183,-0l-5.626,-12.484l3.045,-0l4.177,9.017Z" style="fill:#fff;fill-rule:nonzero;"/><path d="M54.22,21.12l-8.843,-0l0,2.377l5.973,-0l0,4.633c0,2.227 -1.718,3.238 -3.063,3.238c-0.93,0 -2.466,-0.448 -3.016,-2.343l-2.409,0.584c0.388,1.842 2.331,4.295 5.559,4.295c3.378,0 5.799,-2.143 5.799,-6.626l0,-6.158Z" style="fill:#fff;"/><path d="M76.647,33.63l0,-12.494l-2.716,-0l-4.507,5.89l-4.507,-5.89l-2.717,-0l0,12.494l2.87,-0l0,-8.043l3.901,5.083l0.906,0l3.901,-5.083l0,8.043l2.869,-0Z" style="fill:#fff;fill-rule:nonzero;"/><path d="M17.903,22.778c-1.322,-1.363 -3.269,-2.09 -5.405,-2.091c-3.884,0.002 -7.151,2.391 -7.151,6.667c-0,4.279 3.27,6.668 7.151,6.668c2.321,-0 4.418,-0.861 5.733,-2.463l-2.243,-1.641c-0.791,1.019 -2.071,1.567 -3.49,1.567c-2.34,-0 -4.312,-1.48 -4.312,-4.131c0,-2.649 1.97,-4.128 4.312,-4.13c-0.001,0 -0.002,0 -0.002,0l0.005,0c-0.001,0 -0.002,0 -0.003,0c1.311,0.001 2.505,0.466 3.302,1.339l2.103,-1.785Zm-5.405,-2.091c0.002,0 0.003,0 0.004,0l-0.008,0c0.001,0 0.003,0 0.004,0Z" style="fill:#fff;fill-rule:nonzero;"/></g><rect x="88.811" y="18.413" width="94.189" height="18.122" style="fill:#787776;"/><rect x="88.811" y="38.935" width="49.869" height="18.122" style="fill:#787776;"/><path d="M93.912,32.407l2.166,-0l0,-2.579l1.12,-1.474l2.343,4.053l2.373,-0l-3.434,-5.777l2.904,-3.831l-2.388,-0l-2.859,3.934l-0.059,0l0,-3.934l-2.166,-0l0,9.608Z" style="fill:#fff;fill-rule:nonzero;"/><path d="M102.783,32.407l2.167,-0l-0,-4.244c0.383,-0.987 1.061,-1.341 1.606,-1.341c0.309,-0 0.53,0.044 0.796,0.118l0.353,-1.872c-0.206,-0.088 -0.456,-0.147 -0.869,-0.147c-0.752,-0 -1.547,0.471 -2.078,1.459l-0.059,-0l-0.147,-1.282l-1.769,-0l0,7.309Z" style="fill:#fff;fill-rule:nonzero;"/><path d="M111.761,32.584c0.869,-0 1.842,-0.31 2.593,-0.826l-0.722,-1.311c-0.53,0.324 -1.031,0.486 -1.576,0.486c-0.973,0 -1.71,-0.486 -1.901,-1.547l4.376,-0c0.044,-0.177 0.089,-0.575 0.089,-0.958c-0,-1.989 -1.032,-3.507 -3.11,-3.507c-1.753,-0 -3.448,1.459 -3.448,3.831c0,2.417 1.606,3.832 3.699,3.832Zm-1.621,-4.627c0.147,-0.929 0.737,-1.386 1.415,-1.386c0.869,0 1.223,0.575 1.223,1.386l-2.638,-0Z" style="fill:#fff;fill-rule:nonzero;"/><path d="M116.123,32.407l2.166,-0l0,-7.309l-2.166,-0l-0,7.309Zm1.076,-8.385c0.736,-0 1.252,-0.472 1.252,-1.135c0,-0.663 -0.516,-1.12 -1.252,-1.12c-0.723,0 -1.253,0.457 -1.253,1.12c-0,0.663 0.53,1.135 1.253,1.135Z" style="fill:#fff;fill-rule:nonzero;"/><path d="M122.341,32.584c1.96,-0 3.007,-1.032 3.007,-2.358c-0,-1.341 -1.047,-1.857 -1.975,-2.196c-0.752,-0.28 -1.429,-0.457 -1.429,-0.928c-0,-0.369 0.265,-0.575 0.825,-0.575c0.516,0 1.017,0.236 1.547,0.619l0.973,-1.297c-0.634,-0.471 -1.459,-0.928 -2.579,-0.928c-1.695,-0 -2.8,0.928 -2.8,2.284c-0,1.208 1.046,1.813 1.93,2.151c0.752,0.295 1.489,0.516 1.489,1.003c-0,0.383 -0.28,0.618 -0.929,0.618c-0.619,0 -1.223,-0.265 -1.886,-0.766l-0.972,1.356c0.736,0.604 1.842,1.017 2.799,1.017Z" style="fill:#fff;fill-rule:nonzero;"/><path d="M128.398,32.407l2.505,-0l2.387,-7.309l-2.077,-0l-0.958,3.448c-0.192,0.722 -0.383,1.488 -0.56,2.255l-0.059,-0c-0.192,-0.767 -0.383,-1.533 -0.575,-2.255l-0.943,-3.448l-2.181,-0l2.461,7.309Z" style="fill:#fff;fill-rule:nonzero;"/><path d="M137.569,32.584c0.87,-0 1.842,-0.31 2.594,-0.826l-0.722,-1.311c-0.531,0.324 -1.032,0.486 -1.577,0.486c-0.973,0 -1.709,-0.486 -1.901,-1.547l4.377,-0c0.044,-0.177 0.088,-0.575 0.088,-0.958c0,-1.989 -1.031,-3.507 -3.109,-3.507c-1.754,-0 -3.448,1.459 -3.448,3.831c-0,2.417 1.606,3.832 3.698,3.832Zm-1.621,-4.627c0.148,-0.929 0.737,-1.386 1.415,-1.386c0.869,0 1.223,0.575 1.223,1.386l-2.638,-0Z" style="fill:#fff;fill-rule:nonzero;"/><path d="M141.931,32.407l2.167,-0l-0,-4.244c0.383,-0.987 1.061,-1.341 1.606,-1.341c0.309,-0 0.53,0.044 0.796,0.118l0.353,-1.872c-0.206,-0.088 -0.457,-0.147 -0.869,-0.147c-0.752,-0 -1.548,0.471 -2.078,1.459l-0.059,-0l-0.147,-1.282l-1.769,-0l0,7.309Z" style="fill:#fff;fill-rule:nonzero;"/><path d="M151.628,32.584c1.576,-0 3.08,-1.444 3.08,-3.964c-0,-2.24 -1.106,-3.699 -2.874,-3.699c-0.678,-0 -1.37,0.309 -1.93,0.81l0.059,-1.12l-0,-2.534l-2.167,-0l0,10.33l1.695,-0l0.177,-0.781l0.059,-0c0.574,0.634 1.252,0.958 1.901,0.958Zm-0.501,-1.769c-0.369,0 -0.781,-0.118 -1.164,-0.471l-0,-2.992c0.412,-0.456 0.81,-0.663 1.252,-0.663c0.87,0 1.267,0.663 1.267,1.975c0,1.503 -0.604,2.151 -1.355,2.151Z" style="fill:#fff;fill-rule:nonzero;"/><path d="M157.907,32.584c0.825,-0 1.503,-0.383 2.122,-0.929l0.059,0l0.148,0.752l1.768,-0l-0,-4.185c-0,-2.24 -1.032,-3.301 -2.903,-3.301c-1.15,-0 -2.196,0.398 -3.124,0.958l0.781,1.429c0.707,-0.412 1.311,-0.663 1.93,-0.663c0.796,0 1.105,0.413 1.15,1.061c-2.889,0.295 -4.112,1.135 -4.112,2.667c0,1.238 0.84,2.211 2.181,2.211Zm0.737,-1.68c-0.516,-0 -0.84,-0.221 -0.84,-0.693c0,-0.56 0.501,-1.002 2.034,-1.208l-0,1.282c-0.383,0.383 -0.708,0.619 -1.194,0.619Z" style="fill:#fff;fill-rule:nonzero;"/><path d="M163.831,32.407l2.166,-0l0,-4.937c0.472,-0.457 0.811,-0.707 1.356,-0.707c0.619,-0 0.899,0.324 0.899,1.385l0,4.259l2.166,-0l0,-4.539c0,-1.827 -0.678,-2.947 -2.269,-2.947c-0.987,-0 -1.724,0.516 -2.343,1.105l-0.059,0l-0.147,-0.928l-1.769,-0l0,7.309Z" style="fill:#fff;fill-rule:nonzero;"/><path d="M174.869,32.584c0.707,-0 1.429,-0.383 1.945,-0.899l0.059,-0l0.147,0.722l1.768,-0l0,-10.33l-2.166,-0l0,2.49l0.089,1.12c-0.501,-0.471 -0.988,-0.766 -1.798,-0.766c-1.547,-0 -3.036,1.444 -3.036,3.831c0,2.388 1.179,3.832 2.992,3.832Zm0.56,-1.769c-0.84,0 -1.327,-0.648 -1.327,-2.092c0,-1.385 0.619,-2.034 1.312,-2.034c0.398,0 0.825,0.118 1.208,0.472l0,2.991c-0.353,0.487 -0.722,0.663 -1.193,0.663Z" style="fill:#fff;fill-rule:nonzero;"/><path d="M93.912,53.208l3.566,-0c2.078,-0 3.729,-0.869 3.729,-2.829c-0,-1.282 -0.752,-2.005 -1.724,-2.255l-0,-0.059c0.781,-0.295 1.252,-1.223 1.252,-2.078c0,-1.842 -1.547,-2.387 -3.537,-2.387l-3.286,-0l0,9.608Zm2.166,-5.762l0,-2.166l1.032,-0c1.017,-0 1.503,0.28 1.503,1.031c0,0.693 -0.457,1.135 -1.518,1.135l-1.017,0Zm0,4.082l0,-2.476l1.224,0c1.193,0 1.783,0.339 1.783,1.179c-0,0.884 -0.605,1.297 -1.783,1.297l-1.224,0Z" style="fill:#fff;fill-rule:nonzero;"/><path d="M104.847,53.385c1.002,-0 1.679,-0.457 2.298,-1.194l0.045,0l0.162,1.017l1.768,-0l0,-7.309l-2.166,-0l-0,4.833c-0.428,0.575 -0.752,0.811 -1.297,0.811c-0.634,-0 -0.914,-0.339 -0.914,-1.385l0,-4.259l-2.166,-0l0,4.539c0,1.827 0.678,2.947 2.27,2.947Zm-0.56,-8.562c0.618,0 1.046,-0.457 1.046,-1.061c-0,-0.589 -0.428,-1.046 -1.046,-1.046c-0.619,-0 -1.061,0.457 -1.061,1.046c-0,0.604 0.442,1.061 1.061,1.061Zm3.212,0c0.619,0 1.061,-0.457 1.061,-1.061c0,-0.589 -0.442,-1.046 -1.061,-1.046c-0.619,-0 -1.046,0.457 -1.046,1.046c-0,0.604 0.427,1.061 1.046,1.061Z" style="fill:#fff;fill-rule:nonzero;"/><path d="M111.021,53.208l2.166,-0l0,-4.937c0.472,-0.456 0.811,-0.707 1.356,-0.707c0.619,0 0.899,0.324 0.899,1.385l-0,4.259l2.166,-0l0,-4.539c0,-1.827 -0.678,-2.947 -2.269,-2.947c-0.988,-0 -1.724,0.516 -2.343,1.105l-0.059,0l-0.148,-0.928l-1.768,-0l-0,7.309Z" style="fill:#fff;fill-rule:nonzero;"/><path d="M122.058,53.385c0.708,-0 1.43,-0.383 1.946,-0.899l0.059,-0l0.147,0.722l1.768,-0l0,-10.33l-2.166,-0l0,2.49l0.088,1.12c-0.501,-0.471 -0.987,-0.766 -1.797,-0.766c-1.548,-0 -3.036,1.444 -3.036,3.831c-0,2.388 1.179,3.832 2.991,3.832Zm0.56,-1.769c-0.84,0 -1.326,-0.648 -1.326,-2.092c0,-1.385 0.619,-2.034 1.312,-2.034c0.398,0 0.825,0.118 1.208,0.472l0,2.991c-0.354,0.487 -0.722,0.663 -1.194,0.663Z" style="fill:#fff;fill-rule:nonzero;"/><path d="M131.165,53.385c0.87,-0 1.842,-0.31 2.594,-0.825l-0.722,-1.312c-0.531,0.324 -1.032,0.486 -1.577,0.486c-0.972,0 -1.709,-0.486 -1.901,-1.547l4.377,0c0.044,-0.177 0.088,-0.575 0.088,-0.958c0,-1.989 -1.031,-3.507 -3.109,-3.507c-1.754,-0 -3.448,1.459 -3.448,3.831c-0,2.417 1.606,3.832 3.698,3.832Zm-1.621,-4.627c0.148,-0.929 0.737,-1.386 1.415,-1.386c0.87,0 1.223,0.575 1.223,1.386l-2.638,-0Z" style="fill:#fff;fill-rule:nonzero;"/></g></svg>
