<?xml version="1.0" encoding="UTF-8" standalone="no"?><!DOCTYPE svg PUBLIC "-//W3C//DTD SVG 1.1//EN" "http://www.w3.org/Graphics/SVG/1.1/DTD/svg11.dtd"><svg width="100%" height="100%" viewBox="0 0 64 64" version="1.1" xmlns="http://www.w3.org/2000/svg" xmlns:xlink="http://www.w3.org/1999/xlink" xml:space="preserve" xmlns:serif="http://www.serif.com/" style="fill-rule:evenodd;clip-rule:evenodd;stroke-linejoin:round;stroke-miterlimit:2;"><rect id="favicon-rounded" x="-0" y="0" width="64" height="64" style="fill:none;"/><clipPath id="_clip1"><rect x="-0" y="0" width="64" height="64"/></clipPath><g clip-path="url(#_clip1)"><path d="M46,-0c9.941,0 18,8.059 18,18l-0,28c-0,9.941 -8.059,18 -18,18l-28,0c-9.941,-0 -18,-8.059 -18,-18l-0,-28c0,-9.941 8.059,-18 18,-18l28,-0Z" style="fill:#e31414;"/><path d="M35.212,48.935c-0.67,1.138 -1.892,1.836 -3.212,1.836c-1.32,-0 -2.542,-0.698 -3.212,-1.836c-4.19,-7.113 -11.486,-19.497 -15.725,-26.692c-0.679,-1.152 -0.689,-2.58 -0.025,-3.741c0.664,-1.162 1.899,-1.879 3.237,-1.879c8.429,0 23.021,0 31.45,0c1.338,0 2.573,0.717 3.237,1.879c0.664,1.161 0.654,2.589 -0.025,3.741c-4.239,7.195 -11.535,19.579 -15.725,26.692Z" style="fill:#f7f3f3;"/></g></svg>